<mxfile host="app.diagrams.net" modified="2023-02-16T13:29:35.935Z" agent="5.0 (Windows NT 10.0; Win64; x64) AppleWebKit/537.36 (KHTML, like Gecko) Chrome/110.0.0.0 Safari/537.36" etag="Cb0p3mNpnhparMy31XCj" version="20.8.20" type="github">
  <diagram name="ページ1" id="P-FWGQ_7N8YxsmJLjsO_">
    <mxGraphModel dx="1619" dy="1106" grid="1" gridSize="10" guides="1" tooltips="1" connect="1" arrows="1" fold="1" page="1" pageScale="1" pageWidth="827" pageHeight="1169" math="0" shadow="0">
      <root>
        <mxCell id="0" />
        <mxCell id="1" parent="0" />
        <mxCell id="l36bkYvE7WIjRD9frEzU-1" value="AWS Cloud" style="points=[[0,0],[0.25,0],[0.5,0],[0.75,0],[1,0],[1,0.25],[1,0.5],[1,0.75],[1,1],[0.75,1],[0.5,1],[0.25,1],[0,1],[0,0.75],[0,0.5],[0,0.25]];outlineConnect=0;gradientColor=none;html=1;whiteSpace=wrap;fontSize=12;fontStyle=0;container=1;pointerEvents=0;collapsible=0;recursiveResize=0;shape=mxgraph.aws4.group;grIcon=mxgraph.aws4.group_aws_cloud_alt;strokeColor=#232F3E;fillColor=none;verticalAlign=top;align=left;spacingLeft=30;fontColor=#232F3E;dashed=0;" vertex="1" parent="1">
          <mxGeometry x="140" y="370" width="610" height="370" as="geometry" />
        </mxCell>
        <mxCell id="l36bkYvE7WIjRD9frEzU-2" value="VPC" style="points=[[0,0],[0.25,0],[0.5,0],[0.75,0],[1,0],[1,0.25],[1,0.5],[1,0.75],[1,1],[0.75,1],[0.5,1],[0.25,1],[0,1],[0,0.75],[0,0.5],[0,0.25]];outlineConnect=0;gradientColor=none;html=1;whiteSpace=wrap;fontSize=12;fontStyle=0;container=1;pointerEvents=0;collapsible=0;recursiveResize=0;shape=mxgraph.aws4.group;grIcon=mxgraph.aws4.group_vpc;strokeColor=#248814;fillColor=none;verticalAlign=top;align=left;spacingLeft=30;fontColor=#AAB7B8;dashed=0;" vertex="1" parent="l36bkYvE7WIjRD9frEzU-1">
          <mxGeometry x="50" y="100" width="530" height="230" as="geometry" />
        </mxCell>
        <mxCell id="l36bkYvE7WIjRD9frEzU-6" style="edgeStyle=orthogonalEdgeStyle;rounded=0;orthogonalLoop=1;jettySize=auto;html=1;" edge="1" parent="l36bkYvE7WIjRD9frEzU-2" source="l36bkYvE7WIjRD9frEzU-3" target="l36bkYvE7WIjRD9frEzU-5">
          <mxGeometry relative="1" as="geometry" />
        </mxCell>
        <mxCell id="l36bkYvE7WIjRD9frEzU-7" value="&lt;font style=&quot;font-size: 12px;&quot;&gt;target port: 3000&lt;/font&gt;" style="edgeLabel;html=1;align=center;verticalAlign=middle;resizable=0;points=[];" vertex="1" connectable="0" parent="l36bkYvE7WIjRD9frEzU-6">
          <mxGeometry x="0.2853" y="1" relative="1" as="geometry">
            <mxPoint x="7" y="-14" as="offset" />
          </mxGeometry>
        </mxCell>
        <mxCell id="l36bkYvE7WIjRD9frEzU-3" value="ALB" style="sketch=0;outlineConnect=0;fontColor=#232F3E;gradientColor=none;fillColor=#4D27AA;strokeColor=none;dashed=0;verticalLabelPosition=bottom;verticalAlign=top;align=center;html=1;fontSize=12;fontStyle=0;aspect=fixed;pointerEvents=1;shape=mxgraph.aws4.application_load_balancer;" vertex="1" parent="l36bkYvE7WIjRD9frEzU-2">
          <mxGeometry x="100" y="96" width="58" height="58" as="geometry" />
        </mxCell>
        <mxCell id="l36bkYvE7WIjRD9frEzU-8" value="&lt;font style=&quot;font-size: 14px;&quot;&gt;ECS&lt;/font&gt;" style="points=[[0,0],[0.25,0],[0.5,0],[0.75,0],[1,0],[1,0.25],[1,0.5],[1,0.75],[1,1],[0.75,1],[0.5,1],[0.25,1],[0,1],[0,0.75],[0,0.5],[0,0.25]];outlineConnect=0;gradientColor=none;html=1;whiteSpace=wrap;fontSize=12;fontStyle=0;container=1;pointerEvents=0;collapsible=0;recursiveResize=0;shape=mxgraph.aws4.group;grIcon=mxgraph.aws4.group_ec2_instance_contents;strokeColor=#D86613;fillColor=none;verticalAlign=top;align=left;spacingLeft=30;fontColor=#D86613;dashed=0;" vertex="1" parent="l36bkYvE7WIjRD9frEzU-2">
          <mxGeometry x="260" y="20" width="240" height="190" as="geometry" />
        </mxCell>
        <mxCell id="l36bkYvE7WIjRD9frEzU-4" value="" style="sketch=0;points=[[0,0,0],[0.25,0,0],[0.5,0,0],[0.75,0,0],[1,0,0],[0,1,0],[0.25,1,0],[0.5,1,0],[0.75,1,0],[1,1,0],[0,0.25,0],[0,0.5,0],[0,0.75,0],[1,0.25,0],[1,0.5,0],[1,0.75,0]];outlineConnect=0;fontColor=#232F3E;gradientColor=#F78E04;gradientDirection=north;fillColor=#D05C17;strokeColor=#ffffff;dashed=0;verticalLabelPosition=bottom;verticalAlign=top;align=center;html=1;fontSize=12;fontStyle=0;aspect=fixed;shape=mxgraph.aws4.resourceIcon;resIcon=mxgraph.aws4.ecs;" vertex="1" parent="l36bkYvE7WIjRD9frEzU-8">
          <mxGeometry width="30" height="30" as="geometry" />
        </mxCell>
        <mxCell id="l36bkYvE7WIjRD9frEzU-5" value="Container&lt;br&gt;owasp juice shop" style="sketch=0;outlineConnect=0;fontColor=#232F3E;gradientColor=none;fillColor=#D45B07;strokeColor=none;dashed=0;verticalLabelPosition=bottom;verticalAlign=top;align=center;html=1;fontSize=12;fontStyle=0;aspect=fixed;pointerEvents=1;shape=mxgraph.aws4.container_1;" vertex="1" parent="l36bkYvE7WIjRD9frEzU-8">
          <mxGeometry x="150" y="89.5" width="48" height="31" as="geometry" />
        </mxCell>
        <mxCell id="l36bkYvE7WIjRD9frEzU-12" style="edgeStyle=orthogonalEdgeStyle;rounded=0;orthogonalLoop=1;jettySize=auto;html=1;fontSize=12;dashed=1;startArrow=classic;startFill=1;" edge="1" parent="l36bkYvE7WIjRD9frEzU-1" source="l36bkYvE7WIjRD9frEzU-10" target="l36bkYvE7WIjRD9frEzU-3">
          <mxGeometry relative="1" as="geometry">
            <Array as="points">
              <mxPoint x="179" y="44" />
            </Array>
          </mxGeometry>
        </mxCell>
        <mxCell id="l36bkYvE7WIjRD9frEzU-18" value="attach" style="edgeLabel;html=1;align=center;verticalAlign=middle;resizable=0;points=[];fontSize=12;" vertex="1" connectable="0" parent="l36bkYvE7WIjRD9frEzU-12">
          <mxGeometry x="0.3591" y="-1" relative="1" as="geometry">
            <mxPoint as="offset" />
          </mxGeometry>
        </mxCell>
        <mxCell id="l36bkYvE7WIjRD9frEzU-10" value="AWS WAF" style="sketch=0;points=[[0,0,0],[0.25,0,0],[0.5,0,0],[0.75,0,0],[1,0,0],[0,1,0],[0.25,1,0],[0.5,1,0],[0.75,1,0],[1,1,0],[0,0.25,0],[0,0.5,0],[0,0.75,0],[1,0.25,0],[1,0.5,0],[1,0.75,0]];outlineConnect=0;fontColor=#232F3E;gradientColor=#F54749;gradientDirection=north;fillColor=#C7131F;strokeColor=#ffffff;dashed=0;verticalLabelPosition=bottom;verticalAlign=top;align=center;html=1;fontSize=12;fontStyle=0;aspect=fixed;shape=mxgraph.aws4.resourceIcon;resIcon=mxgraph.aws4.waf;" vertex="1" parent="l36bkYvE7WIjRD9frEzU-1">
          <mxGeometry x="208" y="20" width="48" height="48" as="geometry" />
        </mxCell>
        <mxCell id="l36bkYvE7WIjRD9frEzU-16" style="edgeStyle=orthogonalEdgeStyle;rounded=0;orthogonalLoop=1;jettySize=auto;html=1;fontSize=12;" edge="1" parent="l36bkYvE7WIjRD9frEzU-1" source="l36bkYvE7WIjRD9frEzU-15" target="l36bkYvE7WIjRD9frEzU-10">
          <mxGeometry relative="1" as="geometry" />
        </mxCell>
        <mxCell id="l36bkYvE7WIjRD9frEzU-15" value="IPSet" style="sketch=0;outlineConnect=0;fontColor=#232F3E;gradientColor=none;fillColor=#BF0816;strokeColor=none;dashed=0;verticalLabelPosition=bottom;verticalAlign=top;align=center;html=1;fontSize=12;fontStyle=0;aspect=fixed;pointerEvents=1;shape=mxgraph.aws4.waf_rule;" vertex="1" parent="l36bkYvE7WIjRD9frEzU-1">
          <mxGeometry x="291" y="30" width="28" height="28" as="geometry" />
        </mxCell>
        <mxCell id="l36bkYvE7WIjRD9frEzU-14" style="edgeStyle=orthogonalEdgeStyle;rounded=0;orthogonalLoop=1;jettySize=auto;html=1;fontSize=12;" edge="1" parent="1" source="l36bkYvE7WIjRD9frEzU-13" target="l36bkYvE7WIjRD9frEzU-3">
          <mxGeometry relative="1" as="geometry" />
        </mxCell>
        <mxCell id="l36bkYvE7WIjRD9frEzU-17" value="Allow Only myIP" style="edgeLabel;html=1;align=center;verticalAlign=middle;resizable=0;points=[];fontSize=12;" vertex="1" connectable="0" parent="l36bkYvE7WIjRD9frEzU-14">
          <mxGeometry x="0.6246" y="2" relative="1" as="geometry">
            <mxPoint x="-7" y="18" as="offset" />
          </mxGeometry>
        </mxCell>
        <mxCell id="l36bkYvE7WIjRD9frEzU-13" value="" style="sketch=0;outlineConnect=0;fontColor=#232F3E;gradientColor=none;fillColor=#232F3D;strokeColor=none;dashed=0;verticalLabelPosition=bottom;verticalAlign=top;align=center;html=1;fontSize=12;fontStyle=0;aspect=fixed;pointerEvents=1;shape=mxgraph.aws4.user;" vertex="1" parent="1">
          <mxGeometry x="-10" y="556" width="78" height="78" as="geometry" />
        </mxCell>
      </root>
    </mxGraphModel>
  </diagram>
</mxfile>
